<?xml version="1.0"?>
<svg width="258" height="258" xmlns="http://www.w3.org/2000/svg" xmlns:svg="http://www.w3.org/2000/svg" preserveAspectRatio="xMidYMid meet">
 <metadata>Created by potrace 1.13, written by Peter Selinger 2001-2015</metadata>
 <g>
  <title>Layer 1</title>
  <g id="svg_1" fill="#000000" transform="translate(0,258) scale(0.10000000149011612,-0.10000000149011612) ">
   <path fill="#7f7f7f" id="svg_2" d="m1132,2400c-295,-54 -511,-266 -573,-565c-10,-49 -19,-111 -19,-137l0,-48l225,0l225,0l0,43c0,103 56,235 124,293c106,91 307,82 389,-16c56,-67 73,-206 37,-303c-24,-64 -70,-114 -204,-222c-187,-150 -250,-271 -263,-502l-6,-113l212,0l211,0l0,70c0,140 51,218 239,359c241,183 311,304 311,546c-1,107 -11,159 -51,242c-80,167 -232,282 -442,334c-94,23 -330,34 -415,19z"/>
   <path fill="#7f7f7f" id="svg_3" d="m1195,637c-57,-15 -137,-98 -154,-160c-25,-87 -3,-174 60,-236c52,-52 86,-66 169,-66c64,0 82,4 121,27c72,42 119,124 119,207c0,64 -23,114 -75,167c-68,69 -141,87 -240,61z"/>
  </g>
 </g>
</svg>